<svg xmlns="http://www.w3.org/2000/svg" viewBox="0 0 24 20.8" fill="currentColor"><path d="M13.5 8.6c.3-.3.5-.5.7-.8.9-.9 2.1-1.3 3.4-1.4 1.6-.1 3 .2 4.3 1.1.9.7 1.5 1.6 1.8 2.7.3.8.3 1.6.3 2.5v7.8c0 .3-.1.3-.4.3h-4.4c-.4 0-.4 0-.4-.4V13c0-.6-.1-1.1-.4-1.6-.5-1-1.5-1.4-2.6-1.2-1.3.2-2.3 1.2-2.3 2.5v7.9c0 .2-.1.3-.3.3H8.6c-.3 0-.3-.1-.3-.3v-10-3.5c0-.2.1-.3.3-.3h4.6c.2 0 .3.1.3.3v1.5zM.3 13.7V7c0-.2.1-.3.3-.3h4.6c.3 0 .3.1.3.3v13.2c0 .6 0 .6-.6.6H.7c-.2 0-.3-.1-.3-.3-.1-2.2-.1-4.5-.1-6.8zm2.6-8.8c-1 0-1.9-.3-2.5-1.1C-.6 2.4 0 .2 2.5 0c.8-.1 1.6 0 2.3.6.9.6 1.2 1.5.9 2.4-.2 1-1 1.5-2 1.8-.2.1-.5.1-.8.1z"/></svg>