<svg xmlns="http://www.w3.org/2000/svg" viewBox="0 0 24 19.5" fill="currentColor"><path d="M16.4 0H17c.1 0 .3 0 .4.1 1 .2 1.9.6 2.7 1.4.1.1.1.1.3.1 1-.2 2-.6 2.9-1.1h.1c-.4 1.2-1.1 2-2.1 2.7 1-.1 1.9-.4 2.8-.8v.1c-.6.5-1.1 1.1-1.6 1.6-.3.3-.6.5-.9.7l-.1.1v.4c0 .5 0 1.1-.1 1.6s-.1.9-.2 1.3c-.3 1.3-.7 2.6-1.3 3.7-.8 1.6-2 3.1-3.4 4.2-1.5 1.2-3.1 2.1-4.9 2.6-.6.2-1.3.3-1.9.4-.4.1-.8.1-1.2.1H8h-.1c-.6 0-1.2 0-1.8-.1-.6-.1-1.3-.2-1.9-.3-1.5-.4-2.8-.9-4.1-1.7 0 0-.1 0-.1-.1.7.1 1.3.1 1.9 0 .6 0 1.3-.2 1.9-.3.6-.2 1.2-.4 1.8-.7.6-.3 1.5-.9 1.6-1-.7 0-1.3-.2-2-.5-.6-.3-1.2-.7-1.6-1.2-.4-.5-1-1.4-1-1.8.7.1 1.5.1 2.2-.1-2.6-.6-4-2.9-3.9-4.9H1c.6.3 1.2.5 1.9.6h.2c-1.1-.7-1.7-1.7-2-3-.3-1.3 0-2.7.6-3.6C3 2 4.5 3.2 6.2 4.1S9.8 5.9 11.8 6c-.1-.3-.1-.6-.1-.9 0-.4 0-.8.1-1.2.2-1.1.8-2 1.6-2.7.9-.7 1.9-1.1 3-1.2z"/></svg>